<?xml version="1.0" encoding="iso-8859-1"?>
<svg fill="#000000" width="455px" height="455px" version="1.1" id="Layer_1" xmlns="http://www.w3.org/2000/svg" xmlns:xlink="http://www.w3.org/1999/xlink" 
	 viewBox="0 0 512 512" xml:space="preserve">
<g>
	<g>
		<path d="M256,0C114.842,0,0,114.842,0,256s114.842,256,256,256s256-114.842,256-256S397.158,0,256,0z M256,472.615
			c-119.442,0-216.615-97.174-216.615-216.615S136.558,39.385,256,39.385S472.615,136.558,472.615,256S375.442,472.615,256,472.615z
			"/>
	</g>
</g>
<g>
	<g>
		<path d="M399.489,219.535l-99.149-14.407L256,115.283l-44.342,89.846l-99.148,14.407l71.746,69.934l-16.939,98.749L256,341.593
			l88.684,46.625l-16.941-98.749L399.489,219.535z M292.373,316.22L256,297.099l-36.374,19.121l6.947-40.5l-29.427-28.685
			l40.666-5.909l18.187-36.85l18.186,36.85l40.667,5.909l-29.427,28.685L292.373,316.22z"/>
	</g>
</g>
</svg>